<mxfile host="app.diagrams.net" modified="2024-03-04T09:48:20.840Z" agent="Mozilla/5.0 (Macintosh; Intel Mac OS X 10_15_7) AppleWebKit/537.36 (KHTML, like Gecko) Chrome/120.0.0.0 Safari/537.36" version="24.0.1" etag="oKNm-Skkn4_i6lAKY5L-" type="github">
  <diagram name="第 1 页" id="v_apfXEI96cL9AI-UfvN">
    <mxGraphModel>
      <root>
        <mxCell id="0" />
        <mxCell id="1" parent="0" />
      </root>
    </mxGraphModel>
  </diagram>
</mxfile>
